<svg xmlns="http://www.w3.org/2000/svg" width="16" height="16" viewBox="0 0 50 50" fill="#ffffff"><path d="M 24.90625 0 C 11.660156 0 2 10.089844 2 24.78125 C 2 37.945313 11.3125 50 24.90625 50 C 38.621094 50 48 37.949219 48 24.78125 C 48 9.964844 38.035156 0 24.90625 0 Z M 24.90625 2 C 37.042969 2 46 10.839844 46 24.78125 C 46 37.011719 37.449219 48 24.90625 48 C 12.496094 48 4 37.007813 4 24.78125 C 4 10.945313 12.65625 2 24.90625 2 Z M 24.90625 5.03125 C 22.941406 5.03125 21.296875 5.785156 20.0625 7.03125 C 18.828125 8.277344 17.980469 9.960938 17.375 11.84375 C 16.167969 15.605469 15.875 20.269531 15.875 24.40625 C 15.875 28.214844 16.023438 33.011719 17.15625 37 C 17.722656 38.992188 18.554688 40.796875 19.8125 42.15625 C 21.070313 43.515625 22.796875 44.375 24.90625 44.375 C 24.980469 44.371094 25.054688 44.363281 25.125 44.34375 C 25.199219 44.332031 25.273438 44.308594 25.34375 44.28125 C 27.261719 44.164063 28.910156 43.4375 30.09375 42.1875 C 31.375 40.835938 32.199219 39.023438 32.78125 37.03125 C 33.945313 33.050781 34.125 28.253906 34.125 24.40625 C 34.125 19.960938 33.789063 15.289063 32.53125 11.59375 C 31.902344 9.746094 31.035156 8.128906 29.78125 6.9375 C 28.527344 5.746094 26.859375 5.03125 24.90625 5.03125 Z M 24.90625 7.03125 C 26.394531 7.03125 27.480469 7.496094 28.40625 8.375 C 29.332031 9.253906 30.09375 10.570313 30.65625 12.21875 C 31.777344 15.515625 32.125 20.0625 32.125 24.40625 C 32.125 28.195313 31.929688 32.867188 30.875 36.46875 C 30.347656 38.269531 29.617188 39.796875 28.65625 40.8125 C 27.695313 41.828125 26.535156 42.375 24.90625 42.375 C 24.871094 42.375 24.847656 42.375 24.8125 42.375 C 23.273438 42.351563 22.203125 41.808594 21.28125 40.8125 C 20.339844 39.792969 19.605469 38.246094 19.09375 36.4375 C 18.066406 32.824219 17.875 28.160156 17.875 24.40625 C 17.875 20.363281 18.195313 15.816406 19.28125 12.4375 C 19.824219 10.746094 20.554688 9.359375 21.46875 8.4375 C 22.382813 7.515625 23.433594 7.03125 24.90625 7.03125 Z"/></svg>