<svg width="1024px" height="1024px" viewBox="0 0 1024 1024" version="1.1" xmlns="http://www.w3.org/2000/svg" xmlns:xlink="http://www.w3.org/1999/xlink">
    <g id="Dark---Transparent" stroke="none" stroke-width="1" fill="none" fill-rule="evenodd">
        <g id="Logo---Dark" transform="translate(116.000000, 169.500000)" fill="#202020">
            <path d="M287.036155,-5.68434189e-14 L504.963845,1.13686838e-13 C663.489536,8.45661407e-14 792,128.510464 792,287.036155 C792,423.869727 691.93235,540.131456 556.623805,560.503591 C535.62664,563.664954 515.418704,568.187855 496,574.07231 C447.925002,588.640492 414.591669,625.307158 396,684.07231 C377.408331,625.307158 344.074998,588.640492 296,574.07231 C276.581296,568.187855 256.37336,563.664954 235.376193,560.503608 L235.376195,560.503591 C100.06765,540.131456 -4.00861393e-14,423.869727 -5.68434189e-14,287.036155 C-7.62572169e-14,128.510464 128.510464,-2.77227218e-14 287.036155,-5.68434189e-14 Z M597,124.187019 C579.501762,136.496564 560.127608,145.911391 539.623636,152.068935 C517.08166,126.219625 480.755669,117.154841 448.663489,129.370749 C416.571308,141.586657 395.539532,172.484709 396,206.739357 L396,224.962832 C330.778512,226.649458 269.041553,195.658948 231.545455,142.410493 C231.545455,142.410493 158.454545,306.421761 322.909091,379.315658 C285.276913,404.791461 240.44714,417.565443 195,415.762606 C359.454545,506.879977 560.454545,415.762606 560.454545,206.192653 C560.437718,201.116571 559.948345,196.05301 558.992727,191.06717 C577.64193,172.725117 590.802392,149.567085 597,124.187019 Z" id="Combined-Shape"></path>
        </g>
    </g>
</svg>